<svg width="654" height="258" viewBox="0 0 654 258" fill="none" xmlns="http://www.w3.org/2000/svg">
<path d="M291.325 198.275L282.798 108.332C280.185 107.92 276.747 107.782 272.346 107.782C267.945 107.782 264.507 107.92 261.757 108.332L245.941 150.828C242.778 158.942 240.577 165.818 239.477 171.457H238.515C238.239 169.807 237.277 166.506 235.764 161.418C234.251 156.467 233.151 152.891 232.188 150.828L216.235 108.332C213.897 107.92 210.459 107.782 205.783 107.782C201.245 107.782 197.669 107.92 195.194 108.332L186.667 198.275C188.867 198.825 191.343 199.1 194.368 199.1C197.394 199.1 199.87 198.962 202.07 198.55L205.921 148.765C206.058 146.29 206.608 137.488 207.158 122.36H208.121L230.813 184.522C232.876 184.935 235.489 185.072 238.79 185.072C242.09 185.072 244.841 184.935 247.041 184.522L269.596 122.36H270.558C270.696 130.062 271.108 138.863 271.796 148.765L275.784 198.55C277.847 198.962 280.323 199.1 283.211 199.1C286.511 199.1 289.124 198.825 291.325 198.275Z" fill="#E02C1C"/>
<path d="M45.5643 107.782C41.576 107.782 38.4129 107.92 36.2125 108.332L0.0429688 197.587L0.455532 198.275C3.06854 198.962 5.81911 199.237 8.56964 199.237C11.3202 199.237 13.5206 199.1 15.1709 198.687L23.8351 176.27L33.5995 176.408H55.4662L65.2306 176.27L71.6944 192.499C72.7946 195.249 74.0323 197.037 75.2701 198C76.6453 198.962 78.9833 199.513 82.1464 199.513C85.3095 199.513 88.1975 198.962 90.5355 197.725L54.366 108.47C52.5782 108.057 49.6901 107.782 45.5643 107.782ZM56.4289 165.406C54.366 165.406 53.1283 165.268 52.9907 165.268H36.4875L27.9609 165.406L37.8628 139.826C40.2008 133.912 42.2636 127.861 43.914 121.535H44.8767C47.2146 129.236 49.9652 137.075 53.1283 145.052L60.9673 165.543C60.1421 165.406 58.6293 165.406 56.4289 165.406Z" fill="#E02C1C"/>
<path d="M154.072 150.278C158.748 148.903 162.324 146.427 165.212 142.989C167.963 139.551 169.475 135.837 169.475 131.574C169.475 124.01 166.587 118.097 160.811 113.971C155.035 109.845 146.371 107.645 134.819 107.645L101.95 108.057L100.85 109.02V197.587L101.95 198.55L136.744 198.962C149.534 198.962 159.023 196.624 165.35 191.811C171.538 186.997 174.701 180.809 174.701 173.245C174.701 167.744 172.776 162.793 168.788 158.529C164.662 154.404 159.849 151.653 154.072 150.278ZM116.665 117.959C120.241 118.097 126.155 118.097 134.406 118.097C146.921 118.097 153.11 122.772 153.11 131.987C153.11 135.838 151.735 139.138 148.846 141.889C145.958 144.639 141.007 146.014 133.994 146.014H116.528V117.959H116.665ZM154.21 183.147C152.835 184.935 150.634 186.31 147.609 187.272C144.583 188.235 139.907 188.785 133.306 188.785C126.842 188.785 121.204 188.785 116.528 188.923V156.191H135.644C143.62 156.191 149.397 157.842 152.835 161.142C156.273 164.443 158.061 168.156 158.061 172.145C158.061 176.27 156.823 179.846 154.21 183.147Z" fill="#E02C1C"/>
<path d="M365.845 172.023C365.845 176.639 364.985 180.69 363.265 184.176C361.545 187.661 359.214 190.58 356.272 192.934C353.329 195.242 349.89 196.985 345.952 198.162C342.014 199.338 337.805 199.927 333.324 199.927C330.291 199.927 327.462 199.678 324.837 199.18C322.257 198.682 319.971 198.094 317.98 197.415C315.988 196.691 314.313 195.944 312.956 195.174C311.643 194.405 310.692 193.726 310.104 193.137C309.516 192.549 309.086 191.712 308.814 190.625C308.588 189.494 308.475 187.887 308.475 185.805C308.475 184.402 308.52 183.225 308.61 182.274C308.701 181.324 308.837 180.555 309.018 179.966C309.244 179.378 309.516 178.97 309.832 178.744C310.195 178.472 310.602 178.337 311.055 178.337C311.688 178.337 312.571 178.721 313.702 179.491C314.879 180.215 316.373 181.03 318.183 181.935C319.994 182.84 322.144 183.678 324.633 184.447C327.168 185.171 330.087 185.533 333.391 185.533C335.564 185.533 337.51 185.284 339.23 184.787C340.95 184.243 342.399 183.497 343.575 182.546C344.798 181.596 345.725 180.419 346.359 179.016C346.993 177.612 347.31 176.051 347.31 174.331C347.31 172.339 346.766 170.642 345.68 169.239C344.594 167.791 343.168 166.523 341.403 165.437C339.683 164.305 337.714 163.264 335.496 162.314C333.278 161.318 330.993 160.277 328.639 159.191C326.285 158.104 324 156.882 321.782 155.524C319.564 154.121 317.572 152.469 315.807 150.568C314.087 148.622 312.684 146.336 311.598 143.711C310.511 141.086 309.968 137.94 309.968 134.274C309.968 130.064 310.738 126.376 312.277 123.207C313.861 119.994 315.965 117.346 318.591 115.264C321.261 113.136 324.384 111.552 327.96 110.511C331.581 109.47 335.406 108.95 339.434 108.95C341.516 108.95 343.598 109.108 345.68 109.425C347.762 109.742 349.709 110.172 351.519 110.715C353.329 111.258 354.936 111.869 356.339 112.548C357.743 113.227 358.67 113.793 359.123 114.245C359.576 114.698 359.87 115.083 360.006 115.399C360.187 115.716 360.323 116.146 360.413 116.689C360.549 117.187 360.639 117.844 360.685 118.658C360.73 119.428 360.753 120.401 360.753 121.578C360.753 122.89 360.707 123.999 360.617 124.905C360.571 125.81 360.458 126.557 360.277 127.145C360.141 127.733 359.915 128.163 359.598 128.435C359.327 128.707 358.942 128.842 358.444 128.842C357.946 128.842 357.154 128.526 356.068 127.892C354.982 127.258 353.646 126.579 352.062 125.855C350.478 125.086 348.645 124.407 346.563 123.818C344.481 123.185 342.195 122.868 339.706 122.868C337.759 122.868 336.062 123.117 334.614 123.615C333.165 124.067 331.943 124.723 330.947 125.583C329.997 126.398 329.273 127.394 328.775 128.571C328.322 129.748 328.096 130.992 328.096 132.305C328.096 134.251 328.616 135.949 329.657 137.397C330.744 138.8 332.169 140.067 333.935 141.199C335.745 142.285 337.782 143.326 340.045 144.322C342.308 145.273 344.616 146.291 346.97 147.377C349.324 148.464 351.632 149.708 353.895 151.111C356.158 152.469 358.173 154.121 359.938 156.068C361.703 157.969 363.129 160.232 364.215 162.857C365.301 165.437 365.845 168.492 365.845 172.023ZM436.318 196.057C436.318 196.509 436.182 196.917 435.911 197.279C435.639 197.596 435.186 197.867 434.553 198.094C433.919 198.32 433.036 198.478 431.905 198.569C430.819 198.705 429.461 198.773 427.831 198.773C426.157 198.773 424.753 198.705 423.622 198.569C422.536 198.478 421.676 198.32 421.042 198.094C420.408 197.867 419.956 197.596 419.684 197.279C419.412 196.917 419.277 196.509 419.277 196.057V161.499C419.277 158.557 419.05 156.249 418.598 154.574C418.19 152.899 417.579 151.473 416.765 150.297C415.95 149.075 414.886 148.147 413.574 147.513C412.306 146.834 410.813 146.495 409.093 146.495C406.92 146.495 404.725 147.287 402.507 148.871C400.289 150.455 397.981 152.763 395.582 155.796V196.057C395.582 196.509 395.446 196.917 395.174 197.279C394.903 197.596 394.428 197.867 393.749 198.094C393.115 198.32 392.255 198.478 391.169 198.569C390.082 198.705 388.702 198.773 387.027 198.773C385.353 198.773 383.972 198.705 382.886 198.569C381.799 198.478 380.917 198.32 380.238 198.094C379.604 197.867 379.152 197.596 378.88 197.279C378.608 196.917 378.473 196.509 378.473 196.057V106.777C378.473 106.324 378.608 105.917 378.88 105.555C379.152 105.193 379.604 104.899 380.238 104.672C380.917 104.401 381.799 104.197 382.886 104.061C383.972 103.925 385.353 103.858 387.027 103.858C388.702 103.858 390.082 103.925 391.169 104.061C392.255 104.197 393.115 104.401 393.749 104.672C394.428 104.899 394.903 105.193 395.174 105.555C395.446 105.917 395.582 106.324 395.582 106.777V140.248C398.524 137.352 401.511 135.202 404.544 133.799C407.622 132.35 410.813 131.626 414.117 131.626C418.236 131.626 421.698 132.305 424.504 133.663C427.356 135.021 429.642 136.876 431.362 139.23C433.127 141.584 434.394 144.345 435.164 147.513C435.933 150.636 436.318 154.438 436.318 158.919V196.057ZM509.1 164.011C509.1 166.093 508.624 167.632 507.674 168.628C506.769 169.624 505.501 170.122 503.872 170.122H467.006C467.006 172.702 467.3 175.055 467.888 177.182C468.522 179.265 469.495 181.052 470.808 182.546C472.166 183.994 473.886 185.103 475.968 185.873C478.095 186.642 480.63 187.027 483.572 187.027C486.559 187.027 489.184 186.823 491.447 186.416C493.711 185.963 495.657 185.488 497.286 184.99C498.961 184.447 500.341 183.972 501.428 183.564C502.514 183.112 503.397 182.886 504.076 182.886C504.483 182.886 504.822 182.976 505.094 183.157C505.366 183.293 505.592 183.564 505.773 183.972C505.954 184.379 506.067 184.968 506.112 185.737C506.203 186.461 506.248 187.389 506.248 188.521C506.248 189.516 506.226 190.376 506.18 191.101C506.135 191.78 506.067 192.368 505.977 192.866C505.886 193.364 505.75 193.794 505.569 194.156C505.388 194.473 505.139 194.79 504.822 195.106C504.551 195.423 503.759 195.853 502.446 196.396C501.134 196.939 499.459 197.483 497.422 198.026C495.385 198.524 493.054 198.954 490.429 199.316C487.804 199.723 484.998 199.927 482.01 199.927C476.624 199.927 471.894 199.248 467.82 197.89C463.792 196.532 460.42 194.473 457.704 191.712C454.989 188.951 452.952 185.465 451.594 181.256C450.281 177.047 449.625 172.113 449.625 166.455C449.625 161.069 450.327 156.226 451.73 151.926C453.133 147.581 455.17 143.915 457.84 140.927C460.511 137.895 463.747 135.586 467.549 134.002C471.396 132.418 475.719 131.626 480.517 131.626C485.586 131.626 489.908 132.373 493.484 133.866C497.105 135.36 500.07 137.442 502.378 140.113C504.687 142.738 506.384 145.861 507.47 149.482C508.557 153.103 509.1 157.041 509.1 161.295V164.011ZM492.534 159.123C492.669 154.325 491.696 150.568 489.614 147.853C487.577 145.092 484.409 143.711 480.109 143.711C477.937 143.711 476.036 144.118 474.406 144.933C472.822 145.748 471.487 146.857 470.4 148.26C469.359 149.618 468.545 151.247 467.956 153.148C467.413 155.004 467.096 156.995 467.006 159.123H492.534ZM540.331 196.057C540.331 196.509 540.195 196.917 539.923 197.279C539.652 197.596 539.176 197.867 538.498 198.094C537.864 198.32 537.004 198.478 535.918 198.569C534.831 198.705 533.451 198.773 531.776 198.773C530.101 198.773 528.721 198.705 527.635 198.569C526.548 198.478 525.666 198.32 524.987 198.094C524.353 197.867 523.9 197.596 523.629 197.279C523.357 196.917 523.222 196.509 523.222 196.057V106.777C523.222 106.324 523.357 105.917 523.629 105.555C523.9 105.193 524.353 104.899 524.987 104.672C525.666 104.401 526.548 104.197 527.635 104.061C528.721 103.925 530.101 103.858 531.776 103.858C533.451 103.858 534.831 103.925 535.918 104.061C537.004 104.197 537.864 104.401 538.498 104.672C539.176 104.899 539.652 105.193 539.923 105.555C540.195 105.917 540.331 106.324 540.331 106.777V196.057ZM593.966 112.412C593.966 113.725 593.921 114.788 593.831 115.603C593.74 116.373 593.604 116.984 593.423 117.436C593.242 117.844 593.039 118.138 592.812 118.319C592.586 118.455 592.337 118.523 592.065 118.523C591.749 118.523 591.387 118.455 590.979 118.319C590.617 118.138 590.142 117.957 589.553 117.776C589.01 117.595 588.354 117.436 587.585 117.3C586.815 117.119 585.91 117.029 584.869 117.029C583.647 117.029 582.583 117.233 581.678 117.64C580.818 118.002 580.094 118.613 579.505 119.473C578.917 120.288 578.487 121.374 578.215 122.732C577.944 124.045 577.808 125.674 577.808 127.62V133.188H588.874C589.282 133.188 589.644 133.301 589.961 133.527C590.323 133.753 590.617 134.138 590.843 134.681C591.07 135.179 591.228 135.881 591.319 136.786C591.454 137.691 591.522 138.8 591.522 140.113C591.522 142.602 591.296 144.39 590.843 145.476C590.391 146.517 589.734 147.038 588.874 147.038H577.808V196.057C577.808 196.509 577.672 196.917 577.4 197.279C577.129 197.596 576.676 197.867 576.043 198.094C575.409 198.32 574.526 198.478 573.395 198.569C572.263 198.705 570.883 198.773 569.253 198.773C567.624 198.773 566.243 198.705 565.112 198.569C564.025 198.478 563.143 198.32 562.464 198.094C561.83 197.867 561.378 197.596 561.106 197.279C560.88 196.917 560.767 196.509 560.767 196.057V147.038H553.163C552.303 147.038 551.646 146.517 551.194 145.476C550.786 144.39 550.583 142.602 550.583 140.113C550.583 138.8 550.628 137.691 550.718 136.786C550.854 135.881 551.013 135.179 551.194 134.681C551.42 134.138 551.692 133.753 552.008 133.527C552.37 133.301 552.778 133.188 553.23 133.188H560.767V128.096C560.767 123.977 561.174 120.378 561.989 117.3C562.803 114.177 564.071 111.597 565.791 109.561C567.556 107.479 569.774 105.917 572.444 104.876C575.16 103.835 578.351 103.314 582.017 103.314C583.782 103.314 585.457 103.473 587.041 103.79C588.626 104.061 589.87 104.378 590.775 104.74C591.681 105.057 592.292 105.374 592.609 105.691C592.925 105.962 593.174 106.392 593.355 106.981C593.582 107.524 593.74 108.248 593.831 109.153C593.921 110.013 593.966 111.1 593.966 112.412Z" fill="#0EA3D8"/>
<path d="M625.27 153.441C637.411 142.107 645 125.935 645 107.98C645 73.8534 617.555 46.2207 583.659 46.2207C577.968 46.2207 572.656 46.9848 567.47 48.5128C558.617 25.4644 536.357 9.0376 510.303 9.0376C490.952 9.0376 473.625 18.0787 462.369 32.2134C453.895 27.7565 444.283 25.2097 434.038 25.2097C400.143 25.2097 372.697 52.8424 372.697 86.9693" stroke="#2AABE3" stroke-width="16.5032" stroke-miterlimit="10" stroke-linecap="round"/>
<path d="M2.47243 250.458V226.612H7.22211L12.8664 243.496C13.3869 245.068 13.7665 246.245 14.005 247.025C14.2761 246.158 14.6991 244.884 15.2738 243.203L20.9832 226.612H25.2286V250.458H22.1868V230.499L15.2575 250.458H12.411L5.51418 230.158V250.458H2.47243ZM55.3695 250.458V226.612H72.6115V229.426H58.5251V236.729H71.7169V239.527H58.5251V247.643H73.1645V250.458H55.3695ZM102.557 250.458V226.612H113.13C115.256 226.612 116.871 226.828 117.977 227.262C119.084 227.685 119.967 228.439 120.629 229.523C121.29 230.608 121.621 231.806 121.621 233.118C121.621 234.81 121.073 236.236 119.978 237.396C118.883 238.556 117.191 239.294 114.903 239.608C115.738 240.009 116.373 240.405 116.806 240.796C117.728 241.641 118.601 242.699 119.425 243.967L123.573 250.458H119.604L116.448 245.496C115.527 244.065 114.768 242.97 114.171 242.211C113.575 241.452 113.038 240.92 112.561 240.617C112.095 240.313 111.617 240.101 111.129 239.982C110.772 239.906 110.186 239.868 109.373 239.868H105.713V250.458H102.557ZM105.713 237.136H112.496C113.938 237.136 115.066 236.989 115.879 236.696C116.692 236.393 117.311 235.916 117.733 235.265C118.156 234.604 118.368 233.888 118.368 233.118C118.368 231.99 117.956 231.063 117.132 230.336C116.318 229.61 115.028 229.247 113.26 229.247H105.713V237.136ZM168.581 242.097L171.737 242.894C171.075 245.486 169.882 247.465 168.158 248.831C166.445 250.186 164.346 250.864 161.863 250.864C159.293 250.864 157.2 250.344 155.584 249.303C153.98 248.251 152.754 246.733 151.908 244.748C151.073 242.764 150.656 240.633 150.656 238.356C150.656 235.872 151.128 233.709 152.071 231.865C153.025 230.011 154.375 228.607 156.121 227.653C157.878 226.687 159.808 226.205 161.912 226.205C164.298 226.205 166.304 226.812 167.93 228.027C169.557 229.241 170.69 230.949 171.33 233.15L168.223 233.882C167.67 232.147 166.868 230.884 165.816 230.092C164.764 229.301 163.441 228.905 161.847 228.905C160.014 228.905 158.48 229.344 157.244 230.223C156.018 231.101 155.156 232.283 154.657 233.769C154.158 235.243 153.909 236.767 153.909 238.339C153.909 240.367 154.202 242.14 154.787 243.658C155.384 245.166 156.306 246.293 157.553 247.042C158.8 247.79 160.15 248.164 161.603 248.164C163.37 248.164 164.867 247.654 166.092 246.635C167.318 245.616 168.147 244.103 168.581 242.097ZM200.723 250.458V226.612H203.878V236.404H216.273V226.612H219.429V250.458H216.273V239.218H203.878V250.458H200.723ZM247.065 250.458L256.222 226.612H259.622L269.382 250.458H265.787L263.005 243.235H253.034L250.415 250.458H247.065ZM253.945 240.665H262.029L259.541 234.061C258.781 232.055 258.218 230.407 257.849 229.117C257.545 230.646 257.117 232.164 256.564 233.671L253.945 240.665ZM296.855 250.458V226.612H300.092L312.617 245.334V226.612H315.642V250.458H312.405L299.88 231.719V250.458H296.855ZM345.946 250.458V226.612H354.16C356.014 226.612 357.429 226.725 358.405 226.953C359.772 227.268 360.938 227.837 361.903 228.661C363.161 229.724 364.099 231.085 364.717 232.744C365.346 234.392 365.66 236.279 365.66 238.404C365.66 240.215 365.449 241.82 365.026 243.219C364.603 244.618 364.061 245.778 363.399 246.7C362.738 247.611 362.011 248.332 361.219 248.863C360.439 249.384 359.49 249.78 358.373 250.051C357.267 250.322 355.993 250.458 354.55 250.458H345.946ZM349.101 247.643H354.193C355.765 247.643 356.996 247.497 357.885 247.204C358.785 246.912 359.501 246.499 360.032 245.968C360.78 245.22 361.36 244.217 361.773 242.959C362.195 241.69 362.407 240.156 362.407 238.356C362.407 235.861 361.995 233.948 361.171 232.614C360.357 231.269 359.365 230.369 358.194 229.914C357.348 229.588 355.987 229.426 354.111 229.426H349.101V247.643ZM395.541 250.458V226.612H398.696V250.458H395.541ZM428.187 242.796L431.163 242.536C431.304 243.729 431.63 244.71 432.139 245.48C432.66 246.239 433.462 246.857 434.547 247.334C435.631 247.801 436.851 248.034 438.207 248.034C439.41 248.034 440.473 247.855 441.395 247.497C442.316 247.139 443 246.651 443.444 246.033C443.9 245.404 444.127 244.721 444.127 243.984C444.127 243.235 443.91 242.585 443.477 242.032C443.043 241.468 442.327 240.996 441.33 240.617C440.69 240.367 439.275 239.982 437.084 239.462C434.894 238.93 433.359 238.432 432.481 237.965C431.342 237.369 430.491 236.631 429.927 235.753C429.374 234.864 429.098 233.872 429.098 232.776C429.098 231.573 429.439 230.45 430.122 229.409C430.805 228.357 431.803 227.56 433.115 227.018C434.427 226.476 435.886 226.205 437.491 226.205C439.258 226.205 440.815 226.492 442.159 227.067C443.515 227.631 444.556 228.466 445.282 229.572C446.009 230.678 446.399 231.931 446.453 233.329L443.428 233.557C443.265 232.05 442.712 230.911 441.769 230.141C440.836 229.371 439.454 228.986 437.621 228.986C435.712 228.986 434.319 229.339 433.441 230.044C432.573 230.738 432.139 231.578 432.139 232.565C432.139 233.422 432.448 234.126 433.066 234.679C433.674 235.233 435.257 235.802 437.816 236.387C440.386 236.962 442.148 237.466 443.103 237.9C444.491 238.54 445.515 239.353 446.177 240.34C446.838 241.316 447.169 242.444 447.169 243.723C447.169 244.992 446.806 246.19 446.079 247.318C445.353 248.435 444.306 249.308 442.94 249.937C441.584 250.555 440.055 250.864 438.353 250.864C436.195 250.864 434.384 250.55 432.92 249.921C431.467 249.292 430.323 248.348 429.488 247.09C428.664 245.822 428.23 244.39 428.187 242.796ZM477.001 250.458V226.612H480.157V250.458H477.001ZM510.688 250.458V226.612H513.925L526.45 245.334V226.612H529.475V250.458H526.238L513.713 231.719V250.458H510.688ZM570.937 241.105V238.307L581.038 238.291V247.139C579.488 248.375 577.888 249.308 576.24 249.937C574.592 250.555 572.9 250.864 571.165 250.864C568.823 250.864 566.692 250.365 564.772 249.368C562.864 248.359 561.422 246.906 560.446 245.008C559.47 243.111 558.982 240.991 558.982 238.648C558.982 236.328 559.464 234.164 560.429 232.158C561.405 230.141 562.804 228.645 564.626 227.669C566.448 226.693 568.546 226.205 570.921 226.205C572.645 226.205 574.201 226.487 575.589 227.051C576.988 227.604 578.083 228.379 578.875 229.377C579.667 230.374 580.269 231.676 580.681 233.281L577.834 234.061C577.476 232.847 577.032 231.893 576.5 231.199C575.969 230.505 575.21 229.951 574.223 229.539C573.236 229.117 572.141 228.905 570.937 228.905C569.495 228.905 568.248 229.127 567.196 229.572C566.144 230.006 565.293 230.58 564.642 231.296C564.003 232.012 563.504 232.798 563.146 233.655C562.539 235.13 562.235 236.729 562.235 238.453C562.235 240.579 562.598 242.357 563.325 243.788C564.062 245.22 565.13 246.283 566.529 246.977C567.928 247.671 569.414 248.018 570.986 248.018C572.352 248.018 573.686 247.757 574.987 247.237C576.289 246.705 577.276 246.142 577.948 245.545V241.105H570.937Z" fill="#E02C1C"/>
</svg>
